<svg width="4" height="10" viewBox="0 0 4 10" fill="none" xmlns="http://www.w3.org/2000/svg">
<path d="M2.08333 2.19545C1.78105 2.19545 1.55637 2.13298 1.40931 2.00803C1.27042 1.88309 1.20098 1.71352 1.20098 1.49933C1.20098 1.41901 1.20915 1.32976 1.22549 1.23159C1.24183 1.13342 1.25817 1.04418 1.27451 0.963856C1.29902 0.847836 1.33578 0.731816 1.3848 0.615797C1.43382 0.499777 1.50327 0.397144 1.59314 0.307898C1.68301 0.218652 1.79739 0.147256 1.93627 0.0937084C2.07516 0.031236 2.24673 0 2.45098 0C2.75327 0 2.97386 0.0624719 3.11275 0.187416C3.2598 0.31236 3.33333 0.481927 3.33333 0.696117C3.33333 0.776439 3.32516 0.865685 3.30882 0.963856C3.29248 1.06203 3.27614 1.15127 3.2598 1.23159C3.23529 1.34761 3.19853 1.46363 3.14951 1.57965C3.10049 1.69567 3.03105 1.7983 2.94118 1.88755C2.85131 1.9768 2.73693 2.05266 2.59804 2.11513C2.45915 2.16867 2.28758 2.19545 2.08333 2.19545ZM1.10294 10C0.767974 10 0.498366 9.90183 0.294118 9.70549C0.0980392 9.50915 0 9.25033 0 8.92905C0 8.8398 0.0122549 8.72825 0.0367647 8.59438L1.06618 2.97189H2.78186L1.76471 8.50067H2.48775L2.21814 10H1.10294Z" fill="#B69B89"/>
</svg>
