<svg width="14" height="14" viewBox="0 0 14 14" fill="none" xmlns="http://www.w3.org/2000/svg">
<path d="M11.7725 7.20045C11.6849 8.14813 11.3292 9.05127 10.7471 9.80419C10.165 10.5571 9.38044 11.1287 8.48532 11.452C7.59021 11.7753 6.62153 11.837 5.69262 11.6299C4.76371 11.4228 3.91301 10.9554 3.24004 10.2824C2.56708 9.60945 2.09969 8.75875 1.89256 7.82984C1.68544 6.90094 1.74715 5.93225 2.07047 5.03714C2.39379 4.14202 2.96535 3.3575 3.71827 2.77537C4.47119 2.19324 5.37433 1.83758 6.32201 1.75C5.76717 2.50063 5.50018 3.42547 5.5696 4.35631C5.63901 5.28716 6.04022 6.16217 6.70026 6.8222C7.36029 7.48224 8.2353 7.88345 9.16615 7.95286C10.097 8.02228 11.0218 7.75529 11.7725 7.20045Z" stroke="#B69B89" stroke-linecap="round" stroke-linejoin="round"/>
</svg>
